<?xml version="1.0" encoding="UTF-8"?>
<svg id="Layer_2" data-name="Layer 2" xmlns="http://www.w3.org/2000/svg" width="716.2" height="44.82" viewBox="0 0 716.2 44.82">
  <g id="Layer_2-2" data-name="Layer 2">
    <g id="Focs-card">
      <polygon id="bg" points="715.05 43.85 .5 43.85 .5 .5 674.85 .5 715.05 43.85" style="fill: #f7931e; stroke: #000; stroke-miterlimit: 10;"/>
      <text id="player" transform="translate(9.39 33.1)" style="font-family: IntegralCF-DemiBold, &apos;Integral CF&apos;; font-size: 31px;"><tspan x="0" y="0">P</tspan><tspan x="22.94" y="0" style="letter-spacing: 0em;">l</tspan><tspan x="42.93" y="0" style="letter-spacing: -.17em;">a</tspan><tspan x="63.5" y="0">yer 1</tspan></text>
      <g>
        <path id="shotsicon" d="M569.8,10.16c-3.12-1.08-2.7-6.2-2.7-6.2,0,0,2.13,4.58,5.5,4.9,2.03,.2,3.2,3.57,2.6,7.23-.55-1.31-2.74-5.01-5.4-5.93Zm2.95,12.61c-.6,2.14,.58,6.93,5.46,8.99,0,0-1.12-1.37-1.25-2.38-.12-.98-2.78-1.19-4.21-6.61Zm8.88-10.87c.57,3.85,3.34,4.97,4.57,4.97-2.18-.78-1.07-.86-2.82-5.51-2.1-5.54-7.02-4.17-7.02-4.17,0,0,4.6,.18,5.27,4.7h0Zm19.01,16.69c0,6.12-4.96,11.09-11.08,11.09-5.41,0-10.03-3.9-10.93-9.24-.85-1.43-2.02-1.97-2.57-3.66-1.22-3.72-.81-4.84-3.38-5.58-2.38-.69-2.88-5.19-2.88-5.19,0,0,1.57,3.41,4.76,3.87,1.37,.2,2.27,2.82,3.2,3.7,1.02,.96,2.96-1.17,1.67-1.85-1.94-1.01-3.24-1.88-3.52-4.55-.2-1.93,.53-3.91-.18-5.83-1.17-3.16-3.52-4.05-3.52-4.05,0,0,6.02,.35,6.11,6.4,.07,4.77,3.72,6.48,4.87,5.83,.6-.34-.18-1.4-1.99-2.61-1.55-1.04-1.53-5.92-1.53-5.92,0,0,2.66,7.44,7.66,6.72,4.28-.61-.83-2.6-.83-2.6,0,0,1.34-.67,3.27,.07,1.99,.76,1.79,1.78,2.21,2.58,5.06,1.13,8.66,5.63,8.66,10.82Zm-4-5.33c-.29,0-.54,.19-.63,.46l-.86,2.65c-.09,.27,0,.58,.24,.75l2.25,1.64c.23,.17,.55,.17,.78,0l.51-.37c.19-.14,.29-.36,.27-.59-.12-1.49-.59-2.93-1.37-4.2-.12-.2-.34-.32-.57-.32h-.63Zm-10.63,4.8c-.07-.2-.22-.36-.43-.43l-.79-.26c-.2-.07-.42-.03-.59,.09l-2.42,1.76c-.23,.17-.33,.47-.24,.75l.72,2.21c.09,.27,.34,.46,.63,.46h2.99c.21,0,.41-.1,.53-.27l.49-.67c.12-.17,.16-.39,.09-.6l-.99-3.05Zm.6-.13l.94,2.88c.07,.2,.26,.34,.47,.34h3.03c.22,0,.41-.14,.47-.34l.93-2.88c.07-.2,0-.43-.18-.56l-2.45-1.78c-.17-.13-.41-.13-.58,0l-2.45,1.78c-.17,.13-.24,.35-.17,.55h0Zm.17,5.42l.94,2.89c.09,.27,.34,.46,.63,.46h2.37c.29,0,.54-.18,.63-.46l.94-2.89c.07-.2,.03-.42-.09-.59l-.49-.69c-.12-.17-.32-.27-.53-.27h-3.25c-.21,0-.41,.1-.53,.27l-.51,.69c-.12,.17-.16,.39-.09,.59h0Zm5.87-.97c.12,.17,.32,.27,.53,.27h3c.29,0,.54-.18,.63-.46l.72-2.21c.09-.27,0-.58-.24-.75l-2.42-1.76c-.17-.12-.39-.16-.59-.09l-.79,.26c-.2,.07-.36,.22-.43,.43l-.99,3.05c-.07,.2-.03,.42,.09,.6l.49,.67Zm.29-12.58l.23,.7s.03,.07,.07,.09l2.76,2.01s.07,.03,.11,.03h.73c.1,0,.18-.08,.18-.18,0-.04-.02-.08-.04-.12-1.02-1.21-2.32-2.16-3.79-2.76-.09-.04-.2,0-.24,.1-.02,.04-.02,.08,0,.12h0Zm-.47,1.6l-2.42,1.76c-.17,.12-.27,.32-.27,.53v.83c0,.21,.1,.41,.27,.53l2.59,1.88c.17,.12,.39,.16,.59,.09l.79-.26c.2-.07,.36-.22,.43-.43l.93-2.85c.09-.27,0-.58-.24-.75l-1.88-1.37c-.23-.17-.55-.16-.78,0h0Zm-5.57-.49l2.25,1.64c.23,.17,.55,.17,.78,0l2.25-1.64c.23-.17,.33-.47,.24-.75l-.2-.6c-.07-.22-.25-.39-.48-.44-1.46-.34-2.97-.34-4.43,0-.22,.05-.41,.22-.48,.44l-.19,.6c-.09,.28,0,.58,.24,.75h0Zm-1.14,.49l-1.88,1.37c-.23,.17-.33,.47-.24,.75l.93,2.85c.07,.2,.22,.36,.43,.43l.79,.26c.2,.07,.42,.03,.6-.09l2.59-1.88c.17-.12,.27-.32,.27-.53v-.84c0-.21-.1-.41-.27-.53l-2.42-1.76c-.23-.17-.55-.17-.78,0h0Zm-3.51,1.23h.73s.08-.01,.11-.03l2.76-2.01s.05-.05,.07-.09l.23-.7c.03-.1-.02-.2-.12-.23-.04-.01-.08-.01-.12,0-1.47,.6-2.77,1.54-3.79,2.76-.06,.08-.05,.19,.02,.25,.03,.03,.07,.04,.12,.04Zm-2.11,5.76l.51,.37c.23,.17,.55,.17,.78,0l2.25-1.64c.23-.17,.33-.47,.24-.75l-.86-2.65c-.09-.27-.35-.46-.63-.46h-.63c-.23,0-.45,.12-.57,.32-.77,1.28-1.24,2.71-1.36,4.2-.02,.23,.08,.46,.27,.6Zm1.72,4.49l-1.06-3.25s-.03-.07-.07-.09l-.59-.43c-.08-.06-.19-.04-.25,.04-.02,.03-.04,.08-.03,.12,.11,1.58,.61,3.11,1.45,4.45,.06,.08,.17,.1,.25,.05,.03-.02,.06-.05,.07-.09l.23-.69s.01-.07,0-.11h0Zm5.31,3.42l-.86-2.65c-.09-.27-.34-.46-.63-.46h-2.78c-.29,0-.54,.18-.63,.46l-.19,.59c-.07,.22-.02,.46,.13,.64,.98,1.13,2.2,2.02,3.57,2.6,.21,.09,.46,.06,.65-.07l.51-.37c.23-.17,.33-.47,.24-.75h0Zm4.78,1.41l-.59-.43s-.07-.03-.11-.03h-3.42s-.08,.01-.11,.03l-.59,.43c-.08,.06-.1,.17-.04,.25,.02,.03,.06,.06,.1,.07,1.54,.38,3.15,.38,4.69,0,.1-.02,.16-.12,.13-.22,0-.04-.04-.08-.07-.11h0Zm5.06-3.46l-.19-.6c-.09-.28-.35-.46-.64-.46h-2.78c-.29,0-.54,.18-.63,.46l-.86,2.65c-.09,.27,0,.58,.24,.75l.51,.37c.19,.14,.44,.17,.65,.07,1.37-.58,2.59-1.47,3.57-2.6,.15-.18,.2-.42,.13-.64h0Zm.76-.52c.84-1.34,1.34-2.88,1.45-4.46,0-.1-.07-.19-.17-.19-.04,0-.08,0-.12,.03l-.59,.43s-.05,.05-.07,.09l-1.06,3.25s-.01,.07,0,.11l.22,.69c.03,.1,.13,.15,.22,.12,.04-.01,.08-.04,.1-.08h0Z" style="fill: #fff;"/>
        <path id="saveicon" d="M505.81,3.96c-6.76,0-12.23,1.7-12.23,3.79s5.48,3.79,12.23,3.79,12.23-1.7,12.23-3.79-5.48-3.79-12.23-3.79Zm0,6.74c-5.26,0-9.52-1.32-9.52-2.95s4.26-2.95,9.52-2.95,9.52,1.32,9.52,2.95-4.26,2.95-9.52,2.95Zm-3.94,14.91l1.26,3.88c.09,.28,.35,.46,.64,.46h4.08c.29,0,.55-.19,.64-.46l1.26-3.88c.09-.28,0-.58-.24-.75l-3.3-2.4c-.24-.17-.56-.17-.79,0l-3.29,2.4c-.24,.17-.33,.47-.24,.75Zm-4.79-5.68l1.16,3.57c.12,.37-.01,.77-.33,1l-3.04,2.2c-.31,.23-.74,.23-1.05,0l-.69-.5c-.25-.18-.39-.48-.37-.79,.17-2.01,.8-3.95,1.85-5.68,.16-.27,.45-.43,.76-.43h.85c.39,0,.73,.25,.85,.62Zm4.53,11.7l.66-.91c.17-.23,.22-.53,.13-.8l-1.33-4.11c-.09-.27-.3-.49-.58-.57l-1.06-.35c-.27-.09-.57-.04-.8,.13l-3.26,2.37c-.31,.23-.44,.63-.33,1l.97,2.98c.12,.37,.46,.62,.85,.62h4.04c.29,0,.56-.13,.73-.36h0Zm6.64,5.18l1.26-3.87c.09-.27,.04-.57-.13-.8l-.66-.91c-.17-.23-.44-.37-.73-.37h-4.35c-.29,0-.56,.14-.72,.37l-.66,.91c-.17,.23-.21,.53-.13,.8l1.26,3.87c.12,.37,.46,.62,.85,.62h3.16c.39,0,.73-.25,.85-.62Zm-2.07-16.86v1.12c0,.29,.14,.56,.37,.72l3.5,2.54c.23,.17,.53,.22,.8,.13l1.06-.35c.27-.09,.49-.3,.57-.58l1.25-3.84c.12-.37-.01-.77-.33-1l-2.54-1.84c-.31-.23-.74-.23-1.05,0l-3.26,2.37c-.23,.17-.37,.44-.37,.73Zm12.69,5.47c-.17-2.01-.8-3.95-1.85-5.68-.16-.27-.45-.43-.76-.43h-.85c-.39,0-.73,.25-.85,.62l-1.16,3.57c-.12,.37,.01,.77,.33,1l3.04,2.21c.31,.23,.74,.23,1.05,0l.69-.5c.25-.18,.39-.49,.37-.8Zm-3.23,5.96l.97-2.99c.12-.37-.01-.77-.33-1l-3.27-2.38c-.23-.17-.53-.22-.8-.13l-1.06,.35c-.27,.09-.49,.3-.57,.57l-1.34,4.11c-.09,.27-.04,.57,.13,.8l.66,.91c.17,.23,.44,.37,.72,.37h4.04c.39,0,.73-.25,.85-.62Zm-17.8-11.68l1.25,3.84c.09,.27,.3,.49,.57,.58l1.06,.35c.27,.09,.57,.04,.8-.13l3.5-2.54c.23-.17,.37-.44,.37-.72v-1.12c0-.29-.14-.56-.37-.73l-3.26-2.37c-.31-.23-.74-.23-1.05,0l-2.54,1.84c-.31,.23-.44,.63-.33,1Zm16.95,13.1h-3.76c-.39,0-.73,.25-.85,.62l-1.16,3.57c-.12,.37,.01,.77,.33,1l.69,.5c.25,.18,.58,.22,.87,.1,1.86-.79,3.51-1.99,4.83-3.51,.2-.24,.27-.56,.17-.86l-.26-.8c-.12-.37-.46-.62-.85-.62Zm-13.17,5.69l.69-.5c.31-.23,.44-.63,.33-1l-1.16-3.57c-.12-.37-.46-.62-.85-.62h-3.76c-.39,0-.73,.25-.85,.62l-.26,.79c-.1,.3-.03,.62,.17,.86,1.32,1.52,2.97,2.73,4.82,3.51,.29,.12,.62,.08,.87-.1Zm7.83-24.1c-.1-.3-.34-.52-.64-.59-1.96-.46-4.01-.46-5.97,0-.3,.07-.55,.3-.64,.59l-.26,.81c-.12,.37,0,.78,.32,1l3.04,2.21c.31,.23,.74,.23,1.05,0l3.04-2.21c.31-.23,.45-.63,.33-1l-.26-.81Zm9.05,12.86l-.8,.58s-.07,.07-.09,.12l-1.43,4.38s-.02,.1,0,.15l.3,.94c.04,.13,.18,.2,.31,.16,.05-.02,.1-.05,.13-.1,1.14-1.81,1.81-3.88,1.96-6.01,.01-.13-.09-.25-.22-.26-.06,0-.12,.01-.16,.05h0Zm-9.42,11.61l-.8-.58s-.09-.05-.14-.05h-4.61c-.05,0-.1,.02-.14,.05l-.8,.58c-.11,.08-.13,.23-.05,.34,.03,.05,.08,.08,.14,.09,2.08,.52,4.25,.52,6.33,0,.13-.03,.21-.16,.18-.29-.01-.06-.05-.1-.09-.14Zm-13.62-6.53l-1.42-4.38s-.05-.09-.09-.12l-.79-.58c-.1-.08-.26-.07-.34,.04-.04,.05-.06,.11-.05,.17,.15,2.13,.82,4.2,1.96,6.01,.07,.11,.22,.15,.33,.08,.05-.03,.08-.08,.1-.13l.3-.94s.02-.1,0-.15Zm14.95-17.62l.3,.94s.05,.09,.09,.12l3.73,2.71s.09,.05,.14,.05h.98c.13,0,.24-.11,.24-.25,0-.06-.02-.11-.06-.15-1.38-1.64-3.13-2.91-5.11-3.72-.12-.05-.27,0-.32,.13-.02,.05-.03,.11,0,.17h0Zm-13.3,3.77l3.73-2.71s.07-.07,.09-.12l.31-.94c.04-.13-.03-.26-.16-.3-.05-.02-.11-.01-.16,0-1.98,.81-3.74,2.08-5.11,3.72-.09,.1-.07,.26,.03,.34,.04,.04,.1,.06,.15,.06h.98c.05,0,.1-.02,.14-.05Z" style="fill: #fff;"/>
        <path id="goalicon" d="M366.25,31.1l-7.73-7.47,3.05-2.57-3.02-2.65,3.49-5.04-6.18,.55,2.5-9.6-6.91,6.84-2.65-3.68-2.65,3.64-6.62-6.07,2.21,8.94-4.08,.37,1.47,4.01-9.82,2.68,9.56,2.65-2.39,4.45,5.11,.07-3.82,11.81,8.38-9.16,2.65,9.05,2.65-9.08,4.6,2.72-.26-5.41,10.45,2.94Zm-19.12-7.25h3.06c.2,0,.39,.1,.51,.26l.47,.65c.12,.16,.15,.37,.09,.56l-.89,2.73c-.09,.26-.32,.43-.59,.43h-2.23c-.27,0-.51-.17-.59-.43l-.89-2.73c-.06-.19-.03-.4,.09-.56l.47-.65c.12-.16,.31-.26,.51-.26h0Zm-1.21-3.66c-.06-.19,0-.41,.17-.53l2.3-1.67c.16-.12,.38-.12,.55,0l2.3,1.67c.17,.12,.23,.33,.17,.53l-.88,2.7c-.06,.19-.24,.32-.44,.32h-2.84c-.2,0-.38-.13-.44-.32l-.88-2.7Zm5.21,3.61c-.12-.16-.15-.37-.09-.56l.93-2.86c.06-.19,.21-.34,.4-.4l.74-.24c.19-.06,.4-.03,.56,.09l2.28,1.65c.22,.16,.31,.44,.23,.7l-.68,2.08c-.08,.26-.32,.43-.59,.43h-2.81c-.2,0-.39-.1-.5-.26l-.46-.63Zm5.26,1.9c-.05,.08-.15,.1-.23,.05-.03-.02-.06-.05-.07-.09l-.21-.65s-.01-.07,0-.11l.99-3.05s.03-.06,.06-.08l.56-.4c.08-.05,.18-.04,.24,.04,.02,.03,.03,.07,.03,.11-.1,1.49-.57,2.92-1.36,4.19h0Zm-.47-9.84c.22,0,.42,.11,.53,.3,.73,1.2,1.17,2.55,1.29,3.95,.02,.22-.08,.43-.26,.56l-.48,.35c-.22,.16-.52,.16-.74,0l-2.12-1.54c-.22-.16-.31-.44-.23-.7l.81-2.49c.09-.26,.32-.43,.59-.43h.59Zm-3.84-3.39c1.38,.56,2.6,1.45,3.56,2.59,.06,.07,.05,.18-.02,.24-.03,.03-.07,.04-.11,.04h-.68s-.07-.01-.1-.03l-2.6-1.89s-.05-.05-.06-.08l-.21-.65c-.03-.09,.03-.18,.12-.21,.04-.01,.07,0,.11,0Zm.07,1.66l1.77,1.28c.22,.16,.31,.44,.23,.7l-.87,2.67c-.06,.19-.21,.34-.4,.4l-.74,.24c-.19,.06-.4,.03-.56-.09l-2.43-1.77c-.16-.12-.26-.3-.26-.5v-.78c0-.2,.1-.39,.26-.5l2.27-1.65c.22-.16,.51-.16,.73,0Zm-6.2-1.16l.19-.57c.07-.21,.24-.36,.45-.41,1.37-.32,2.79-.32,4.16,0,.21,.05,.38,.21,.45,.41l.18,.56c.08,.26,0,.54-.23,.7l-2.12,1.54c-.22,.16-.52,.16-.74,0l-2.11-1.54c-.22-.16-.31-.44-.23-.69h0Zm2.15,2.81c.16,.12,.26,.31,.26,.5v.78c0,.2-.1,.39-.26,.5l-2.43,1.77c-.16,.12-.37,.15-.56,.09l-.74-.24c-.19-.06-.34-.21-.4-.4l-.87-2.67c-.08-.26,0-.54,.23-.7l1.77-1.29c.22-.16,.52-.16,.74,0l2.27,1.65Zm-6.41-.72c.96-1.14,2.18-2.03,3.56-2.59,.09-.04,.19,0,.22,.09,.02,.04,.02,.08,0,.12l-.21,.65s-.03,.06-.06,.08l-2.6,1.89s-.06,.03-.1,.03h-.68c-.09,0-.17-.07-.18-.16,0-.05,.01-.09,.05-.13h0Zm-2.11,5.05c.12-1.4,.56-2.75,1.29-3.95,.11-.19,.32-.3,.54-.3h.59c.27,0,.51,.17,.59,.43l.81,2.49c.08,.26,0,.54-.23,.7l-2.12,1.54c-.22,.16-.52,.16-.74,0l-.48-.35c-.18-.13-.27-.34-.25-.56Zm1.87,4.9l-.21,.65c-.03,.09-.12,.14-.21,.11-.04-.01-.07-.04-.09-.07-.79-1.26-1.26-2.7-1.37-4.19,0-.09,.06-.17,.16-.18,.04,0,.08,0,.11,.03l.56,.4s.05,.05,.06,.08l.99,3.05s.01,.07,0,.11Zm-.29-2.84c-.08-.26,0-.54,.23-.7l2.28-1.65c.16-.12,.37-.15,.56-.09l.74,.24c.19,.06,.34,.21,.4,.4l.93,2.86c.06,.19,.03,.4-.09,.56l-.46,.63c-.12,.16-.3,.26-.5,.26h-2.81c-.27,0-.51-.17-.59-.43l-.68-2.08Zm5.06,6.65l-.48,.35c-.18,.13-.41,.15-.61,.07-1.29-.55-2.44-1.38-3.35-2.45-.14-.17-.19-.39-.12-.6l.18-.56c.08-.26,.32-.43,.59-.43h2.61c.27,0,.51,.17,.59,.43l.81,2.49c.08,.26-.01,.54-.23,.7h0Zm4.66,.9c-1.45,.36-2.96,.36-4.41,0-.09-.02-.15-.11-.12-.2,0-.04,.03-.07,.07-.1l.56-.4s.06-.03,.1-.03h3.21s.07,.01,.1,.03l.56,.4c.08,.05,.1,.16,.04,.24-.02,.03-.06,.06-.1,.07h0Zm4.69-2.93c-.92,1.06-2.06,1.9-3.35,2.44-.2,.09-.43,.06-.61-.07l-.48-.35c-.22-.16-.31-.44-.23-.7l.81-2.48c.08-.26,.32-.43,.59-.43h2.62c.27,0,.51,.17,.59,.43l.18,.56c.07,.21,.02,.43-.12,.6Z" style="fill: #fff;"/>
        <path id="assisticon" d="M436.29,35.17c-.08,.08-.21,.07-.29-.01-.06-.06-.07-.16-.03-.23,.22-.41,.41-.84,.57-1.28,.3-.89,.81-1.69,1.48-2.34,1.41-1.38,3.02-2.54,4.78-3.44,.29-.21,.48-.53,.52-.89,.02-.33-.08-.66-.29-.93-.39-.53-1.11-.82-1.83-.28l-3.46,2.58c-.2,.16-.46,.21-.7,.12-.14-.06-.4-.23-.47-.73-.03-.19-.08-.57,2.81-8.36,1.42-3.81,2.86-7.58,2.88-7.62,.27-.7-.12-1.22-.63-1.42-.26-.1-.55-.11-.81-.02-.29,.12-.51,.35-.61,.65l-3.82,9.98c-.23,.61-.86,.74-1.35,.55s-.87-.7-.64-1.31l5.07-13.21c.27-.7-.12-1.21-.63-1.41s-1.14-.08-1.41,.62l-4.33,11.28c-.1,.25-.38,.38-.64,.28-.13-.05-.23-.15-.28-.28l-.59-1.53c-.04-.11-.04-.24,0-.35l3.09-8.05c.27-.7-.12-1.22-.63-1.42s-1.14-.08-1.42,.63l-1.81,4.74c-.1,.25-.38,.38-.64,.28-.13-.05-.23-.15-.28-.28l-.28-.73c-.04-.11-.04-.24,0-.35l1.59-4.21c.4-1.04,1.32-1.69,2.4-1.69,.89,0,1.73,.44,2.24,1.17,.03,.04,.06,.09,.08,.13l.06-.16c.4-1.04,1.31-1.68,2.39-1.68,.9,0,1.74,.44,2.25,1.17,.48,.7,.57,1.6,.25,2.39l-.52,1.35c.26-.09,.53-.13,.81-.13,.89,0,1.73,.44,2.25,1.17,.48,.71,.57,1.61,.25,2.4-1.92,4.98-3.96,10.47-4.97,13.41l1.57-1.17c.49-.37,1.08-.58,1.7-.59,1.2,0,2.32,.84,2.71,2.03,.39,1.16,0,2.36-1.01,3.11l-.08,.06-.09,.05c-2.92,1.49-4.6,3.3-6.23,5.05l-.99,.91Zm-25.36-5.69c7.74,3.95,7.95,10.19,15.61,10.19,5.67,0,10.36-5.92,9.05-9.93l-8.04-21.17c-.72-1.87-3.56-.78-2.84,1.09l3.21,8.37c.32,.84-.94,1.33-1.27,.49l-4.49-11.71c-.73-1.9-3.57-.8-2.84,1.09l4.48,11.7c.32,.84-1.03,1.36-1.35,.52l-5.33-13.9c-.73-1.88-3.57-.79-2.85,1.09l5.34,13.9c.32,.84-1.07,1.38-1.39,.54l-4.02-10.49c-.73-1.9-3.58-.8-2.85,1.09,0,0,6.08,15.82,5.96,16.63-.07,.48-.34,.61-.64,.39l-3.64-2.72c-1.86-1.39-3.96,1.43-2.1,2.82Z" style="fill: #fff;"/>
        <text id="score-text" transform="translate(224.5 2.13)" style="fill: #fff; font-family: IntegralCF-DemiBold, &apos;Integral CF&apos;; font-size: 8px; glyph-orientation-vertical: 0deg; letter-spacing: -.01em; text-orientation: upright; writing-mode: tb;"><tspan x="0" y="0">SCORE</tspan></text>
      </g>
      <text id="assists" transform="translate(448.02 32.33)" style="fill: #fff; font-family: IntegralCF-DemiBold, &apos;Integral CF&apos;; font-size: 24.84px;"><tspan x="0" y="0">5</tspan></text>
      <text id="goals" transform="translate(367.59 32.69)" style="fill: #fff; font-family: IntegralCF-DemiBold, &apos;Integral CF&apos;; font-size: 24.84px;"><tspan x="0" y="0">5</tspan></text>
      <text id="saves" transform="translate(523.35 32.33)" style="fill: #fff; font-family: IntegralCF-DemiBold, &apos;Integral CF&apos;; font-size: 24.84px;"><tspan x="0" y="0">5</tspan></text>
      <text id="shots" transform="translate(603.81 32.33)" style="fill: #fff; font-family: IntegralCF-DemiBold, &apos;Integral CF&apos;; font-size: 24.84px;"><tspan x="0" y="0">5</tspan></text>
      <text id="score" transform="translate(237.92 32.33)" style="fill: #fff; font-family: IntegralCF-DemiBold, &apos;Integral CF&apos;; font-size: 24.84px;"><tspan x="0" y="0" style="letter-spacing: -.01em;">5</tspan><tspan x="16.54" y="0" style="letter-spacing: -.02em;">2</tspan><tspan x="32.59" y="0">45</tspan></text>
    </g>
  </g>
</svg>